<svg width="512" height="512" xmlns="http://www.w3.org/2000/svg">
 <g>
  <title>background</title>
  <rect x="-1" y="-1" width="467.454604" height="467.454604" id="canvas_background" fill="none"/>
 </g>

 <g>
  <title>Layer 1</title>
  <g id="Others"/>
  <g id="Design"/>
  <g id="SEO_x2F__Web"/>
  <g id="Finance__x2F__Money"/>
  <g id="E-Commerce__x2F__Shopping"/>
  <g id="Strategy">
   <g id="partnership">
    <path d="m510,258c0,141.385 -114.615,256 -256,256s-256,-114.615 -256,-256c0,-5.644 0.183,-11.245 0.542,-16.797c2.532,-39.087 51.945,-24.729 70.074,-57.086c15.096,-26.946 -3.185,-101.939 20.25,-121.742c44.577,-37.668 102.204,-60.375 165.134,-60.375s120.556,22.706 165.132,60.373c22.964,19.404 0.486,92.458 15.465,118.744c17.726,31.105 71.098,16.606 74.404,54.11c0.661,7.502 0.999,15.098 0.999,22.773z" fill="#ffffff" id="svg_1"/>
    <path d="m510.191,236.6c-2.976,-37.74 -14.144,-73.17 -31.714,-104.532c-15.097,-26.946 -34.922,-50.879 -58.357,-70.682l-96.521,96.521l132.699,132.7l53.902,-53.902c-0.002,-0.035 -0.006,-0.07 -0.009,-0.105z" fill="#33495F" id="svg_2"/>
    <path d="m388.118,222.427l68.123,68.124l53.95,-53.95c-2.976,-37.74 -14.144,-73.17 -31.714,-104.532l-43.227,43.228l-47.132,47.13z" fill="#2B3E51" id="svg_3"/>
    <path d="m89.879,61.387c-23.435,19.802 -43.26,43.735 -58.356,70.682c-17.57,31.362 -28.738,66.792 -31.714,104.533l53.949,53.949l44.996,-44.995l23.128,-23.128l64.519,-64.519l-96.522,-96.522z" fill="#95A5A6" id="svg_4"/>
    <path d="m-0.191,236.601l53.949,53.949l44.996,-44.995l23.128,-23.128l-90.359,-90.358c-17.57,31.362 -28.738,66.792 -31.714,104.532z" fill="#7F8C8D" id="svg_5"/>
    <rect x="226.605541" y="222.337677" transform="matrix(0.7071,-0.7071,0.7071,0.7071,-120.8361,309.882) " width="159.998" height="156.999" fill="#D55400" id="svg_6"/>
    <path d="m130.912,400.799c7.778,7.778 20.506,7.778 28.284,0l71.418,-71.418c7.778,-7.778 7.778,-20.506 0,-28.284l0,0c-7.778,-7.778 -20.506,-7.778 -28.284,0l-71.418,71.418c-7.778,7.777 -7.778,20.506 0,28.284l0,0z" fill="#D55400" id="svg_7"/>
    <path d="m147.883,447.468c8.556,8.556 22.557,8.556 31.112,0l98.995,-98.995c8.557,-8.556 8.557,-22.557 0,-31.112l0,0c-8.556,-8.556 -22.557,-8.556 -31.112,0l-98.995,98.995c-8.557,8.555 -8.556,22.556 0,31.112l0,0z" fill="#D55400" id="svg_8"/>
    <path d="m189.602,466.56c7.001,7 18.456,7 25.456,0l84.854,-84.853c7,-7 7,-18.456 0,-25.456l0,0c-7.001,-7 -18.456,-7 -25.456,0l-84.854,84.853c-7,7 -7,18.456 0,25.456l0,0z" fill="#D55400" id="svg_9"/>
    <path d="m232.028,473.631c5.445,5.445 14.354,5.445 19.799,0l72.832,-72.832c5.445,-5.445 5.445,-14.354 0,-19.799l0,0c-5.444,-5.445 -14.354,-5.445 -19.799,0l-72.832,72.832c-5.444,5.444 -5.444,14.354 0,19.799l0,0z" fill="#D55400" id="svg_10"/>
    <rect x="360.017773" y="150.153" transform="matrix(0.7071,-0.7071,0.7071,0.7071,-55.8797,337.0633) " width="35" height="171.663" fill="#ECF0F1" id="svg_11"/>
    <rect x="389.257773" y="220.781" transform="matrix(0.7071,-0.7071,0.7071,0.7071,-67.9905,366.303) " width="35" height="88.884" fill="#BDC3C7" id="svg_12"/>
    <circle cx="459.515" cy="225.198" r="20.475" fill="#ECF0F1" id="svg_13"/>
    <rect x="118.361" y="220.887773" transform="matrix(-0.7071,-0.7071,0.7071,-0.7071,125.9254,653.7618) " width="159.999" height="156.999" fill="#F59D00" id="svg_14"/>
    <path d="m379.087,400.799c-7.778,7.778 -20.506,7.778 -28.284,0l-71.418,-71.418c-7.777,-7.778 -7.777,-20.506 0,-28.284l0,0c7.778,-7.778 20.507,-7.778 28.284,0l71.418,71.418c7.778,7.777 7.778,20.506 0,28.284l0,0z" fill="#F59D00" id="svg_15"/>
    <path d="m362.116,447.468c-8.556,8.556 -22.556,8.556 -31.112,0l-98.995,-98.995c-8.556,-8.556 -8.556,-22.557 0,-31.112l0,0c8.557,-8.556 22.557,-8.556 31.113,0l98.994,98.995c8.557,8.555 8.557,22.556 0,31.112l0,0z" fill="#F59D00" id="svg_16"/>
    <path d="m320.397,466.56c-7,7 -18.456,7 -25.456,0l-84.853,-84.853c-7,-7 -7,-18.456 0,-25.456l0,0c7,-7 18.455,-7 25.456,0l84.853,84.853c7,7 7,18.456 0,25.456l0,0z" fill="#F59D00" id="svg_17"/>
    <path d="m277.971,473.631c-5.444,5.445 -14.354,5.445 -19.799,0l-72.832,-72.832c-5.444,-5.445 -5.444,-14.354 0,-19.799l0,0c5.445,-5.445 14.354,-5.445 19.799,0l72.832,72.832c5.445,5.444 5.445,14.354 0,19.799l0,0z" fill="#F59D00" id="svg_18"/>
    <rect x="115.578" y="148.738773" transform="matrix(-0.7071,-0.7071,0.7071,-0.7071,60.3115,496.9509) " width="35" height="171.663" fill="#ECF0F1" id="svg_19"/>
    <rect x="86.339" y="219.368773" transform="matrix(-0.7071,-0.7071,0.7071,-0.7071,-10.2784,526.1924) " width="35" height="88.883" fill="#BDC3C7" id="svg_20"/>
    <polygon points="257.1289978027344,250.5570068359375 277.1300048828125,226.2969970703125 257.8550109863281,207.13099670410156 200.18899536132812,193.61599731445312 " fill="#E87E04" id="svg_21"/>
    <circle cx="364.71" cy="386.017" r="15" fill="#ECF0F1" id="svg_22"/>
    <circle cx="347.74" cy="432.686" r="15" fill="#ECF0F1" id="svg_23"/>
    <circle cx="306.728" cy="452.485" r="13" fill="#ECF0F1" id="svg_24"/>
    <circle cx="267.129" cy="462.385" r="10" fill="#ECF0F1" id="svg_25"/>
    <circle cx="50.485" cy="225.198" r="20.475" fill="#ECF0F1" id="svg_26"/>
    <path d="m231.655,290.49c-18.929,19.935 -50.892,4.773 -50.892,4.773l71.381,-88.132l57.666,-13.515c0.001,0 -59.225,76.94 -78.155,96.874z" fill="#D55400" id="svg_27"/>
    <path d="m290.674,257.757c0,0 33.663,28.442 72.693,-10.583l36.611,36.612c0,0 -20.268,79.972 -50.269,51.787c-24.471,-22.99 -67.655,-69.348 -67.655,-69.348l8.62,-8.468z" fill="#E87E04" id="svg_28"/>
   </g>
  </g>
  <g id="svg_29"/>
  <g id="svg_30"/>
  <g id="svg_31"/>
  <g id="svg_32"/>
  <g id="svg_33"/>
  <g id="svg_34"/>
  <g id="svg_35"/>
  <g id="svg_36"/>
  <g id="svg_37"/>
  <g id="svg_38"/>
  <g id="svg_39"/>
  <g id="svg_40"/>
  <g id="svg_41"/>
  <g id="svg_42"/>
  <g id="svg_43"/>
 </g>
</svg>